<svg width="265" height="80" viewBox="0 0 265 80" fill="none" xmlns="http://www.w3.org/2000/svg">
<path d="M167.616 30.63H174.491V60H167.616V30.63ZM171.081 25.79C169.835 25.79 168.79 25.405 167.946 24.635C167.103 23.8283 166.681 22.8383 166.681 21.665C166.681 20.4916 167.103 19.52 167.946 18.75C168.79 17.9433 169.835 17.54 171.081 17.54C172.328 17.54 173.373 17.925 174.216 18.695C175.06 19.4283 175.481 20.3633 175.481 21.5C175.481 22.71 175.06 23.7366 174.216 24.58C173.41 25.3866 172.365 25.79 171.081 25.79Z" fill="#EEEEEE"/>
<path d="M161.279 54.5V60H135.924V55.655L152.039 36.13H136.254V30.63H160.839V34.975L144.669 54.5H161.279Z" fill="#EEEEEE"/>
<path d="M116.156 30.3C120.482 30.3 123.782 31.345 126.056 33.435C128.366 35.4883 129.521 38.605 129.521 42.785V60H123.031V56.425C122.187 57.7083 120.977 58.6983 119.401 59.395C117.861 60.055 115.991 60.385 113.791 60.385C111.591 60.385 109.666 60.0183 108.016 59.285C106.366 58.515 105.082 57.47 104.166 56.15C103.286 54.7933 102.846 53.2717 102.846 51.585C102.846 48.945 103.817 46.8367 105.761 45.26C107.741 43.6467 110.839 42.84 115.056 42.84H122.646V42.4C122.646 40.3467 122.022 38.77 120.776 37.67C119.566 36.57 117.751 36.02 115.331 36.02C113.681 36.02 112.049 36.2767 110.436 36.79C108.859 37.3033 107.521 38.0183 106.421 38.935L103.726 33.93C105.266 32.7567 107.117 31.8583 109.281 31.235C111.444 30.6117 113.736 30.3 116.156 30.3ZM115.221 55.38C116.944 55.38 118.466 54.995 119.786 54.225C121.142 53.4183 122.096 52.2817 122.646 50.815V47.405H115.551C111.591 47.405 109.611 48.7067 109.611 51.31C109.611 52.5567 110.106 53.5467 111.096 54.28C112.086 55.0133 113.461 55.38 115.221 55.38Z" fill="#EEEEEE"/>
<path d="M101.552 30.63L87.8019 62.365C86.5186 65.555 84.9602 67.7917 83.1269 69.075C81.2936 70.395 79.0752 71.055 76.4719 71.055C75.0052 71.055 73.5569 70.8167 72.1269 70.34C70.6969 69.8633 69.5236 69.2033 68.6069 68.36L71.3569 63.3C72.0169 63.9233 72.7869 64.4183 73.6669 64.785C74.5836 65.1517 75.5002 65.335 76.4169 65.335C77.6269 65.335 78.6169 65.0233 79.3869 64.4C80.1936 63.7767 80.9269 62.7317 81.5869 61.265L82.0819 60.11L69.2669 30.63H76.4169L85.6569 52.355L94.9519 30.63H101.552Z" fill="#EEEEEE"/>
<path d="M52.4008 30.3C56.7275 30.3 60.0275 31.345 62.3008 33.435C64.6108 35.4883 65.7658 38.605 65.7658 42.785V60H59.2758V56.425C58.4325 57.7083 57.2225 58.6983 55.6458 59.395C54.1058 60.055 52.2358 60.385 50.0358 60.385C47.8358 60.385 45.9108 60.0183 44.2608 59.285C42.6108 58.515 41.3275 57.47 40.4108 56.15C39.5308 54.7933 39.0908 53.2717 39.0908 51.585C39.0908 48.945 40.0625 46.8367 42.0058 45.26C43.9858 43.6467 47.0842 42.84 51.3008 42.84H58.8908V42.4C58.8908 40.3467 58.2675 38.77 57.0208 37.67C55.8108 36.57 53.9958 36.02 51.5758 36.02C49.9258 36.02 48.2942 36.2767 46.6808 36.79C45.1042 37.3033 43.7658 38.0183 42.6658 38.935L39.9708 33.93C41.5108 32.7567 43.3625 31.8583 45.5258 31.235C47.6892 30.6117 49.9808 30.3 52.4008 30.3ZM51.4658 55.38C53.1892 55.38 54.7108 54.995 56.0308 54.225C57.3875 53.4183 58.3408 52.2817 58.8908 50.815V47.405H51.7958C47.8358 47.405 45.8558 48.7067 45.8558 51.31C45.8558 52.5567 46.3508 53.5467 47.3408 54.28C48.3308 55.0133 49.7058 55.38 51.4658 55.38Z" fill="#EEEEEE"/>
<path d="M27.28 39.98C29.4067 40.6767 31.0933 41.85 32.34 43.5C33.5867 45.1133 34.21 47.13 34.21 49.55C34.21 52.8867 32.9267 55.4717 30.36 57.305C27.7933 59.1017 24.0533 60 19.14 60H0V21.5H18.04C22.5867 21.5 26.0883 22.3983 28.545 24.195C31.0017 25.955 32.23 28.3933 32.23 31.51C32.23 33.4167 31.79 35.1033 30.91 36.57C30.03 38.0367 28.82 39.1733 27.28 39.98ZM7.15 27.11V37.725H17.27C19.7633 37.725 21.67 37.285 22.99 36.405C24.3467 35.4883 25.025 34.1683 25.025 32.445C25.025 30.685 24.3467 29.365 22.99 28.485C21.67 27.5683 19.7633 27.11 17.27 27.11H7.15ZM18.7 54.39C24.2367 54.39 27.005 52.5383 27.005 48.835C27.005 45.1317 24.2367 43.28 18.7 43.28H7.15V54.39H18.7Z" fill="#EEEEEE"/>
<g clip-path="url(#clip0_1148_2)">
<path d="M182.83 0H207.43V8H240.23V0H264.83V24H256.63V56H264.83V80H240.23V72H207.43V80H182.83V56H191.03V24H182.83V0ZM240.23 24V16H207.43V24H199.23V56H207.43V64H240.23V56H248.43V24H240.23ZM191.03 8V16H199.23V8H191.03ZM248.43 8V16H256.63V8H248.43ZM191.03 64V72H199.23V64H191.03ZM248.43 64V72H256.63V64H248.43Z" fill="#EEEEEE"/>
<path d="M237.548 27.5533L230.447 57.1348L224.506 55.7087L225.1 53.2369C223.112 54.7273 220.656 55.1215 217.732 54.4196C215.712 53.9347 213.987 53.0426 212.556 51.7433C211.152 50.4504 210.185 48.8551 209.657 46.9573C209.129 45.0596 209.129 43.0077 209.659 40.8017C210.189 38.5958 211.12 36.7672 212.452 35.3161C213.784 33.865 215.369 32.8823 217.208 32.3679C219.072 31.8598 221.015 31.8483 223.035 32.3332C225.772 32.9904 227.704 34.3679 228.831 36.4656L231.329 26.0602L237.548 27.5533ZM220.034 49.575C221.602 49.9515 223.032 49.7326 224.324 48.9183C225.622 48.0775 226.488 46.7534 226.922 44.9461C227.355 43.1388 227.182 41.5791 226.4 40.2672C225.626 38.9286 224.454 38.0711 222.886 37.6946C221.291 37.3118 219.845 37.5408 218.547 38.3816C217.255 39.1959 216.392 40.5067 215.958 42.314C215.524 44.1213 215.695 45.6943 216.47 47.0328C217.251 48.3448 218.439 49.1922 220.034 49.575Z" fill="#EEEEEE"/>
</g>
<defs>
<clipPath id="clip0_1148_2">
<rect width="82" height="80" fill="white" transform="translate(182.83)"/>
</clipPath>
</defs>
</svg>
