<svg width="265" height="80" viewBox="0 0 265 80" fill="none" xmlns="http://www.w3.org/2000/svg">
<path d="M167.616 30.63H174.491V60H167.616V30.63ZM171.081 25.79C169.834 25.79 168.789 25.405 167.946 24.635C167.103 23.8284 166.681 22.8384 166.681 21.665C166.681 20.4917 167.103 19.52 167.946 18.75C168.789 17.9434 169.834 17.54 171.081 17.54C172.328 17.54 173.373 17.925 174.216 18.695C175.059 19.4284 175.481 20.3634 175.481 21.5C175.481 22.71 175.059 23.7367 174.216 24.58C173.409 25.3867 172.364 25.79 171.081 25.79Z" fill="black"/>
<path d="M161.279 54.4999V59.9999H135.924V55.6549L152.039 36.1299H136.254V30.6299H160.839V34.9749L144.669 54.4999H161.279Z" fill="black"/>
<path d="M116.156 30.2998C120.482 30.2998 123.782 31.3448 126.056 33.4348C128.366 35.4881 129.521 38.6048 129.521 42.7848V59.9998H123.031V56.4248C122.187 57.7081 120.977 58.6981 119.401 59.3948C117.861 60.0548 115.991 60.3848 113.791 60.3848C111.591 60.3848 109.666 60.0181 108.016 59.2848C106.366 58.5148 105.082 57.4698 104.166 56.1498C103.286 54.7931 102.846 53.2715 102.846 51.5848C102.846 48.9448 103.817 46.8365 105.761 45.2598C107.741 43.6465 110.839 42.8398 115.056 42.8398H122.646V42.3998C122.646 40.3465 122.022 38.7698 120.776 37.6698C119.566 36.5698 117.751 36.0198 115.331 36.0198C113.681 36.0198 112.049 36.2765 110.436 36.7898C108.859 37.3031 107.521 38.0181 106.421 38.9348L103.726 33.9298C105.266 32.7565 107.117 31.8581 109.281 31.2348C111.444 30.6115 113.736 30.2998 116.156 30.2998ZM115.221 55.3798C116.944 55.3798 118.466 54.9948 119.786 54.2248C121.142 53.4181 122.096 52.2815 122.646 50.8148V47.4048H115.551C111.591 47.4048 109.611 48.7065 109.611 51.3098C109.611 52.5565 110.106 53.5465 111.096 54.2798C112.086 55.0131 113.461 55.3798 115.221 55.3798Z" fill="black"/>
<path d="M101.551 30.6299L87.8014 62.3649C86.5181 65.5549 84.9598 67.7916 83.1264 69.0749C81.2931 70.3949 79.0748 71.0549 76.4714 71.0549C75.0048 71.0549 73.5564 70.8166 72.1264 70.3399C70.6964 69.8632 69.5231 69.2032 68.6064 68.3599L71.3564 63.2999C72.0164 63.9232 72.7864 64.4182 73.6664 64.7849C74.5831 65.1516 75.4998 65.3349 76.4164 65.3349C77.6264 65.3349 78.6164 65.0232 79.3864 64.3999C80.1931 63.7766 80.9264 62.7316 81.5864 61.2649L82.0814 60.1099L69.2664 30.6299H76.4164L85.6564 52.3549L94.9514 30.6299H101.551Z" fill="black"/>
<path d="M52.4008 30.2998C56.7275 30.2998 60.0275 31.3448 62.3008 33.4348C64.6108 35.4881 65.7658 38.6048 65.7658 42.7848V59.9998H59.2758V56.4248C58.4325 57.7081 57.2225 58.6981 55.6458 59.3948C54.1058 60.0548 52.2358 60.3848 50.0358 60.3848C47.8358 60.3848 45.9108 60.0181 44.2608 59.2848C42.6108 58.5148 41.3275 57.4698 40.4108 56.1498C39.5308 54.7931 39.0908 53.2715 39.0908 51.5848C39.0908 48.9448 40.0625 46.8365 42.0058 45.2598C43.9858 43.6465 47.0842 42.8398 51.3008 42.8398H58.8908V42.3998C58.8908 40.3465 58.2675 38.7698 57.0208 37.6698C55.8108 36.5698 53.9958 36.0198 51.5758 36.0198C49.9258 36.0198 48.2942 36.2765 46.6808 36.7898C45.1042 37.3031 43.7658 38.0181 42.6658 38.9348L39.9708 33.9298C41.5108 32.7565 43.3625 31.8581 45.5258 31.2348C47.6892 30.6115 49.9808 30.2998 52.4008 30.2998ZM51.4658 55.3798C53.1892 55.3798 54.7108 54.9948 56.0308 54.2248C57.3875 53.4181 58.3408 52.2815 58.8908 50.8148V47.4048H51.7958C47.8358 47.4048 45.8558 48.7065 45.8558 51.3098C45.8558 52.5565 46.3508 53.5465 47.3408 54.2798C48.3308 55.0131 49.7058 55.3798 51.4658 55.3798Z" fill="black"/>
<path d="M27.28 39.98C29.4067 40.6767 31.0933 41.85 32.34 43.5C33.5867 45.1133 34.21 47.13 34.21 49.55C34.21 52.8867 32.9267 55.4717 30.36 57.305C27.7933 59.1017 24.0533 60 19.14 60H0V21.5H18.04C22.5867 21.5 26.0883 22.3983 28.545 24.195C31.0017 25.955 32.23 28.3933 32.23 31.51C32.23 33.4167 31.79 35.1033 30.91 36.57C30.03 38.0367 28.82 39.1733 27.28 39.98ZM7.15 27.11V37.725H17.27C19.7633 37.725 21.67 37.285 22.99 36.405C24.3467 35.4883 25.025 34.1683 25.025 32.445C25.025 30.685 24.3467 29.365 22.99 28.485C21.67 27.5683 19.7633 27.11 17.27 27.11H7.15ZM18.7 54.39C24.2367 54.39 27.005 52.5383 27.005 48.835C27.005 45.1317 24.2367 43.28 18.7 43.28H7.15V54.39H18.7Z" fill="black"/>
<g clip-path="url(#clip0_1228_2)">
<path d="M182.83 0H207.43V8H240.23V0H264.83V24H256.63V56H264.83V80H240.23V72H207.43V80H182.83V56H191.03V24H182.83V0ZM240.23 24V16H207.43V24H199.23V56H207.43V64H240.23V56H248.43V24H240.23ZM191.03 8V16H199.23V8H191.03ZM248.43 8V16H256.63V8H248.43ZM191.03 64V72H199.23V64H191.03ZM248.43 64V72H256.63V64H248.43Z" fill="black"/>
<path d="M237.549 27.5531L230.447 57.1345L224.507 55.7084L225.1 53.2366C223.112 54.727 220.656 55.1213 217.732 54.4194C215.712 53.9344 213.987 53.0423 212.556 51.7431C211.152 50.4502 210.186 48.8549 209.657 46.9571C209.129 45.0594 209.13 43.0075 209.659 40.8015C210.189 38.5955 211.12 36.767 212.452 35.3159C213.784 33.8648 215.37 32.882 217.208 32.3676C219.073 31.8596 221.015 31.848 223.035 32.333C225.772 32.9902 227.705 34.3676 228.831 36.4653L231.329 26.06L237.549 27.5531ZM220.034 49.5748C221.602 49.9513 223.032 49.7324 224.324 48.9181C225.622 48.0773 226.488 46.7532 226.922 44.9459C227.356 43.1385 227.182 41.5789 226.401 40.2669C225.626 38.9284 224.454 38.0709 222.886 37.6944C221.291 37.3115 219.845 37.5405 218.547 38.3814C217.255 39.1957 216.392 40.5065 215.958 42.3138C215.524 44.1211 215.695 45.694 216.47 47.0326C217.251 48.3445 218.439 49.192 220.034 49.5748Z" fill="black"/>
</g>
<defs>
<clipPath id="clip0_1228_2">
<rect width="82" height="80" fill="white" transform="translate(182.83)"/>
</clipPath>
</defs>
</svg>
